<mxfile host="app.diagrams.net" modified="2022-02-24T23:09:49.953Z" agent="5.0 (Windows NT 10.0; Win64; x64) AppleWebKit/537.36 (KHTML, like Gecko) Chrome/97.0.4692.99 Safari/537.36 OPR/83.0.4254.46" etag="Fw0MGwptIofm92t1f0Ma" version="16.6.4" type="github">
  <diagram id="pAxz8__UEu0tE-uq1FwQ" name="Page-1">
    <mxGraphModel dx="1835" dy="2583" grid="1" gridSize="10" guides="1" tooltips="1" connect="1" arrows="1" fold="1" page="1" pageScale="1" pageWidth="850" pageHeight="1100" math="0" shadow="0">
      <root>
        <mxCell id="0" />
        <mxCell id="1" parent="0" />
        <mxCell id="gdxoQut8BHxpfie8aeQP-1" style="edgeStyle=orthogonalEdgeStyle;rounded=0;orthogonalLoop=1;jettySize=auto;html=1;exitX=0.5;exitY=0;exitDx=0;exitDy=0;entryX=0.5;entryY=1;entryDx=0;entryDy=0;" edge="1" parent="1" source="gdxoQut8BHxpfie8aeQP-4" target="gdxoQut8BHxpfie8aeQP-13">
          <mxGeometry relative="1" as="geometry">
            <Array as="points">
              <mxPoint x="425" y="430" />
              <mxPoint x="425" y="430" />
            </Array>
          </mxGeometry>
        </mxCell>
        <mxCell id="gdxoQut8BHxpfie8aeQP-2" style="edgeStyle=orthogonalEdgeStyle;rounded=0;orthogonalLoop=1;jettySize=auto;html=1;exitX=0.5;exitY=0;exitDx=0;exitDy=0;entryX=0.5;entryY=1;entryDx=0;entryDy=0;" edge="1" parent="1" source="gdxoQut8BHxpfie8aeQP-4" target="gdxoQut8BHxpfie8aeQP-8">
          <mxGeometry relative="1" as="geometry">
            <Array as="points">
              <mxPoint x="425" y="430" />
              <mxPoint x="60" y="430" />
            </Array>
          </mxGeometry>
        </mxCell>
        <mxCell id="gdxoQut8BHxpfie8aeQP-3" style="edgeStyle=orthogonalEdgeStyle;rounded=0;orthogonalLoop=1;jettySize=auto;html=1;exitX=0.5;exitY=0;exitDx=0;exitDy=0;entryX=0.5;entryY=1;entryDx=0;entryDy=0;" edge="1" parent="1" source="gdxoQut8BHxpfie8aeQP-4" target="gdxoQut8BHxpfie8aeQP-10">
          <mxGeometry relative="1" as="geometry">
            <Array as="points">
              <mxPoint x="425" y="430" />
              <mxPoint x="790" y="430" />
            </Array>
          </mxGeometry>
        </mxCell>
        <mxCell id="gdxoQut8BHxpfie8aeQP-4" value="Player" style="swimlane;" vertex="1" parent="1">
          <mxGeometry x="325" y="480" width="200" height="200" as="geometry" />
        </mxCell>
        <mxCell id="gdxoQut8BHxpfie8aeQP-19" style="edgeStyle=orthogonalEdgeStyle;rounded=0;orthogonalLoop=1;jettySize=auto;html=1;exitX=0.5;exitY=0;exitDx=0;exitDy=0;entryX=0.5;entryY=1;entryDx=0;entryDy=0;" edge="1" parent="1" source="gdxoQut8BHxpfie8aeQP-5" target="gdxoQut8BHxpfie8aeQP-17">
          <mxGeometry relative="1" as="geometry" />
        </mxCell>
        <mxCell id="gdxoQut8BHxpfie8aeQP-20" style="edgeStyle=orthogonalEdgeStyle;rounded=0;orthogonalLoop=1;jettySize=auto;html=1;exitX=0.5;exitY=0;exitDx=0;exitDy=0;entryX=0.5;entryY=1;entryDx=0;entryDy=0;" edge="1" parent="1" source="gdxoQut8BHxpfie8aeQP-5" target="gdxoQut8BHxpfie8aeQP-15">
          <mxGeometry relative="1" as="geometry">
            <Array as="points">
              <mxPoint x="60" y="-420" />
              <mxPoint x="260" y="-420" />
            </Array>
          </mxGeometry>
        </mxCell>
        <mxCell id="gdxoQut8BHxpfie8aeQP-5" value="Surface Map" style="rounded=1;whiteSpace=wrap;html=1;" vertex="1" parent="1">
          <mxGeometry y="250" width="120" height="60" as="geometry" />
        </mxCell>
        <mxCell id="gdxoQut8BHxpfie8aeQP-22" style="edgeStyle=orthogonalEdgeStyle;rounded=0;orthogonalLoop=1;jettySize=auto;html=1;exitX=0.5;exitY=0;exitDx=0;exitDy=0;entryX=0.25;entryY=1;entryDx=0;entryDy=0;" edge="1" parent="1" source="gdxoQut8BHxpfie8aeQP-6" target="gdxoQut8BHxpfie8aeQP-21">
          <mxGeometry relative="1" as="geometry" />
        </mxCell>
        <mxCell id="gdxoQut8BHxpfie8aeQP-24" style="edgeStyle=orthogonalEdgeStyle;rounded=0;orthogonalLoop=1;jettySize=auto;html=1;exitX=0.5;exitY=0;exitDx=0;exitDy=0;entryX=0.5;entryY=1;entryDx=0;entryDy=0;" edge="1" parent="1" source="gdxoQut8BHxpfie8aeQP-6" target="gdxoQut8BHxpfie8aeQP-23">
          <mxGeometry relative="1" as="geometry" />
        </mxCell>
        <mxCell id="gdxoQut8BHxpfie8aeQP-6" value="Xen Map" style="rounded=1;whiteSpace=wrap;html=1;" vertex="1" parent="1">
          <mxGeometry x="730" y="250" width="120" height="60" as="geometry" />
        </mxCell>
        <mxCell id="gdxoQut8BHxpfie8aeQP-7" style="edgeStyle=orthogonalEdgeStyle;rounded=0;orthogonalLoop=1;jettySize=auto;html=1;exitX=0.5;exitY=0;exitDx=0;exitDy=0;entryX=0.5;entryY=1;entryDx=0;entryDy=0;" edge="1" parent="1" source="gdxoQut8BHxpfie8aeQP-8" target="gdxoQut8BHxpfie8aeQP-5">
          <mxGeometry relative="1" as="geometry" />
        </mxCell>
        <mxCell id="gdxoQut8BHxpfie8aeQP-8" value="Server 1" style="ellipse;whiteSpace=wrap;html=1;" vertex="1" parent="1">
          <mxGeometry y="340" width="120" height="80" as="geometry" />
        </mxCell>
        <mxCell id="gdxoQut8BHxpfie8aeQP-9" style="edgeStyle=orthogonalEdgeStyle;rounded=0;orthogonalLoop=1;jettySize=auto;html=1;exitX=0.5;exitY=0;exitDx=0;exitDy=0;entryX=0.5;entryY=1;entryDx=0;entryDy=0;" edge="1" parent="1" source="gdxoQut8BHxpfie8aeQP-10" target="gdxoQut8BHxpfie8aeQP-6">
          <mxGeometry relative="1" as="geometry" />
        </mxCell>
        <mxCell id="gdxoQut8BHxpfie8aeQP-10" value="Server 3" style="ellipse;whiteSpace=wrap;html=1;" vertex="1" parent="1">
          <mxGeometry x="730" y="340" width="120" height="80" as="geometry" />
        </mxCell>
        <mxCell id="gdxoQut8BHxpfie8aeQP-11" value="Maintenance Map" style="rounded=1;whiteSpace=wrap;html=1;" vertex="1" parent="1">
          <mxGeometry x="365" y="250" width="120" height="60" as="geometry" />
        </mxCell>
        <mxCell id="gdxoQut8BHxpfie8aeQP-12" style="edgeStyle=orthogonalEdgeStyle;rounded=0;orthogonalLoop=1;jettySize=auto;html=1;exitX=0.5;exitY=0;exitDx=0;exitDy=0;entryX=0.5;entryY=1;entryDx=0;entryDy=0;" edge="1" parent="1" source="gdxoQut8BHxpfie8aeQP-13" target="gdxoQut8BHxpfie8aeQP-11">
          <mxGeometry relative="1" as="geometry" />
        </mxCell>
        <mxCell id="gdxoQut8BHxpfie8aeQP-13" value="Server 2" style="ellipse;whiteSpace=wrap;html=1;" vertex="1" parent="1">
          <mxGeometry x="365" y="340" width="120" height="80" as="geometry" />
        </mxCell>
        <mxCell id="gdxoQut8BHxpfie8aeQP-30" style="edgeStyle=orthogonalEdgeStyle;rounded=0;orthogonalLoop=1;jettySize=auto;html=1;exitX=1;exitY=0.5;exitDx=0;exitDy=0;entryX=0;entryY=0.5;entryDx=0;entryDy=0;fillColor=#008a00;strokeColor=#005700;" edge="1" parent="1" source="gdxoQut8BHxpfie8aeQP-14" target="gdxoQut8BHxpfie8aeQP-10">
          <mxGeometry relative="1" as="geometry">
            <mxPoint x="680" y="380" as="targetPoint" />
            <Array as="points">
              <mxPoint x="680" y="-280" />
              <mxPoint x="680" y="380" />
            </Array>
          </mxGeometry>
        </mxCell>
        <mxCell id="gdxoQut8BHxpfie8aeQP-14" value="Lambda Complex" style="whiteSpace=wrap;html=1;aspect=fixed;" vertex="1" parent="1">
          <mxGeometry x="-80" y="-320" width="80" height="80" as="geometry" />
        </mxCell>
        <mxCell id="gdxoQut8BHxpfie8aeQP-15" value="Main Facility Entrance" style="whiteSpace=wrap;html=1;aspect=fixed;" vertex="1" parent="1">
          <mxGeometry x="220" y="-510" width="80" height="80" as="geometry" />
        </mxCell>
        <mxCell id="gdxoQut8BHxpfie8aeQP-16" value="Area 3 Security" style="whiteSpace=wrap;html=1;aspect=fixed;" vertex="1" parent="1">
          <mxGeometry x="220" y="-110" width="80" height="80" as="geometry" />
        </mxCell>
        <mxCell id="gdxoQut8BHxpfie8aeQP-17" value="Level 3 Dorms" style="whiteSpace=wrap;html=1;aspect=fixed;" vertex="1" parent="1">
          <mxGeometry x="220" y="-30" width="80" height="80" as="geometry" />
        </mxCell>
        <mxCell id="gdxoQut8BHxpfie8aeQP-18" value="Biodome Complex" style="whiteSpace=wrap;html=1;aspect=fixed;" vertex="1" parent="1">
          <mxGeometry x="300" y="-30" width="80" height="80" as="geometry" />
        </mxCell>
        <mxCell id="gdxoQut8BHxpfie8aeQP-29" style="edgeStyle=orthogonalEdgeStyle;rounded=0;orthogonalLoop=1;jettySize=auto;html=1;exitX=0.5;exitY=0;exitDx=0;exitDy=0;entryX=0.25;entryY=1;entryDx=0;entryDy=0;" edge="1" parent="1" source="gdxoQut8BHxpfie8aeQP-21" target="gdxoQut8BHxpfie8aeQP-27">
          <mxGeometry relative="1" as="geometry">
            <Array as="points">
              <mxPoint x="990" y="100" />
              <mxPoint x="990" y="100" />
            </Array>
          </mxGeometry>
        </mxCell>
        <mxCell id="gdxoQut8BHxpfie8aeQP-31" style="edgeStyle=orthogonalEdgeStyle;rounded=0;orthogonalLoop=1;jettySize=auto;html=1;exitX=0.75;exitY=1;exitDx=0;exitDy=0;entryX=1;entryY=0.5;entryDx=0;entryDy=0;fillColor=#008a00;strokeColor=#005700;" edge="1" parent="1" source="gdxoQut8BHxpfie8aeQP-21" target="gdxoQut8BHxpfie8aeQP-8">
          <mxGeometry relative="1" as="geometry">
            <mxPoint x="1000" y="360" as="targetPoint" />
            <Array as="points">
              <mxPoint x="1010" y="460" />
              <mxPoint x="140" y="460" />
              <mxPoint x="140" y="380" />
            </Array>
          </mxGeometry>
        </mxCell>
        <mxCell id="gdxoQut8BHxpfie8aeQP-21" value="Survey Habitat" style="whiteSpace=wrap;html=1;aspect=fixed;" vertex="1" parent="1">
          <mxGeometry x="950" y="130" width="80" height="80" as="geometry" />
        </mxCell>
        <mxCell id="gdxoQut8BHxpfie8aeQP-26" style="edgeStyle=orthogonalEdgeStyle;rounded=0;orthogonalLoop=1;jettySize=auto;html=1;exitX=0.5;exitY=0;exitDx=0;exitDy=0;entryX=0.5;entryY=1;entryDx=0;entryDy=0;" edge="1" parent="1" source="gdxoQut8BHxpfie8aeQP-23" target="gdxoQut8BHxpfie8aeQP-25">
          <mxGeometry relative="1" as="geometry" />
        </mxCell>
        <mxCell id="gdxoQut8BHxpfie8aeQP-23" value="Xen Village" style="whiteSpace=wrap;html=1;aspect=fixed;" vertex="1" parent="1">
          <mxGeometry x="700" y="130" width="80" height="80" as="geometry" />
        </mxCell>
        <mxCell id="gdxoQut8BHxpfie8aeQP-28" style="edgeStyle=orthogonalEdgeStyle;rounded=0;orthogonalLoop=1;jettySize=auto;html=1;exitX=1;exitY=0.5;exitDx=0;exitDy=0;entryX=0;entryY=0.75;entryDx=0;entryDy=0;" edge="1" parent="1" source="gdxoQut8BHxpfie8aeQP-25" target="gdxoQut8BHxpfie8aeQP-27">
          <mxGeometry relative="1" as="geometry">
            <mxPoint x="880" y="-90" as="targetPoint" />
            <Array as="points">
              <mxPoint x="810" y="-110" />
              <mxPoint x="810" y="-110" />
            </Array>
          </mxGeometry>
        </mxCell>
        <mxCell id="gdxoQut8BHxpfie8aeQP-32" style="edgeStyle=orthogonalEdgeStyle;rounded=0;orthogonalLoop=1;jettySize=auto;html=1;exitX=0;exitY=0.5;exitDx=0;exitDy=0;entryX=1;entryY=0.5;entryDx=0;entryDy=0;fillColor=#a20025;strokeColor=#6F0000;" edge="1" parent="1" source="gdxoQut8BHxpfie8aeQP-25" target="gdxoQut8BHxpfie8aeQP-8">
          <mxGeometry relative="1" as="geometry">
            <mxPoint x="160" y="380" as="targetPoint" />
            <Array as="points">
              <mxPoint x="640" y="-110" />
              <mxPoint x="640" y="440" />
              <mxPoint x="120" y="440" />
            </Array>
          </mxGeometry>
        </mxCell>
        <mxCell id="gdxoQut8BHxpfie8aeQP-25" value="Nihilanth Tower, Factories" style="whiteSpace=wrap;html=1;aspect=fixed;" vertex="1" parent="1">
          <mxGeometry x="700" y="-150" width="80" height="80" as="geometry" />
        </mxCell>
        <mxCell id="gdxoQut8BHxpfie8aeQP-33" style="edgeStyle=orthogonalEdgeStyle;rounded=0;orthogonalLoop=1;jettySize=auto;html=1;exitX=0.5;exitY=1;exitDx=0;exitDy=0;" edge="1" parent="1" source="gdxoQut8BHxpfie8aeQP-27">
          <mxGeometry relative="1" as="geometry">
            <mxPoint x="300" y="450" as="targetPoint" />
          </mxGeometry>
        </mxCell>
        <mxCell id="gdxoQut8BHxpfie8aeQP-27" value="Modular Environment, changes each month or event maybe" style="whiteSpace=wrap;html=1;aspect=fixed;" vertex="1" parent="1">
          <mxGeometry x="920" y="-320" width="280" height="280" as="geometry" />
        </mxCell>
      </root>
    </mxGraphModel>
  </diagram>
</mxfile>
